<svg width="50" height="50" viewBox="0 0 50 50" fill="none" xmlns="http://www.w3.org/2000/svg">
<rect y="0.571426" width="50" height="48.8571" rx="8" fill="#F4F5F8"/>
<path d="M6.76539 40.2766V36.3465H8.56994C8.76183 36.3465 8.93897 36.3852 9.10134 36.4627C9.26371 36.5402 9.40394 36.6454 9.52203 36.7782C9.64012 36.9074 9.73053 37.0531 9.79327 37.2155C9.85969 37.3779 9.8929 37.5421 9.8929 37.7082C9.8929 37.8595 9.87076 38.0052 9.82648 38.1455C9.7822 38.2857 9.71762 38.4149 9.63274 38.5329C9.54786 38.6473 9.44638 38.747 9.32829 38.8319L10.1586 40.2766H8.97403L8.2821 39.0699H7.8448V40.2766H6.76539ZM7.8448 38.1289H8.52566C8.56994 38.1289 8.61238 38.1122 8.65297 38.079C8.69356 38.0458 8.72678 37.9978 8.75261 37.9351C8.78213 37.8724 8.79689 37.7967 8.79689 37.7082C8.79689 37.6159 8.78029 37.5403 8.74707 37.4812C8.71755 37.4185 8.6788 37.3705 8.63083 37.3373C8.58655 37.3041 8.54226 37.2875 8.49798 37.2875H7.8448V38.1289ZM11.4085 36.3465H12.6152L13.8663 40.2766H12.7702L12.5322 39.5072H11.486L11.2535 40.2766H10.152L11.4085 36.3465ZM12.3606 38.7876L12.0119 37.4037L11.6466 38.7876H12.3606ZM14.1319 39.2193V38.2783H15.8645V39.2193H14.1319ZM16.2635 38.2783C16.2635 38.0384 16.3078 37.8041 16.3964 37.5753C16.4886 37.3428 16.6215 37.1325 16.7949 36.9443C16.9684 36.7561 17.1787 36.6066 17.426 36.4959C17.6769 36.3815 17.9592 36.3243 18.2729 36.3243C18.6493 36.3243 18.9777 36.4037 19.2582 36.5623C19.5386 36.7173 19.7471 36.924 19.8837 37.1823L19.0589 37.7691C19.0109 37.6399 18.9408 37.5403 18.8486 37.4701C18.76 37.4 18.6622 37.3521 18.5552 37.3262C18.4519 37.2967 18.3504 37.2819 18.2507 37.2819C18.0957 37.2819 17.961 37.3133 17.8466 37.376C17.7359 37.4351 17.6437 37.5144 17.5699 37.6141C17.4998 37.7137 17.4463 37.8244 17.4094 37.9462C17.3761 38.068 17.3595 38.1897 17.3595 38.3115C17.3595 38.4481 17.3798 38.5791 17.4204 38.7045C17.461 38.83 17.5201 38.9426 17.5976 39.0422C17.6751 39.1381 17.7692 39.2138 17.8799 39.2692C17.9943 39.3245 18.1216 39.3522 18.2618 39.3522C18.3614 39.3522 18.4629 39.3374 18.5663 39.3079C18.6696 39.2747 18.7637 39.223 18.8486 39.1529C18.9334 39.0828 18.998 38.9887 19.0423 38.8706L19.9224 39.3965C19.8449 39.5884 19.7158 39.7526 19.5349 39.8891C19.3541 40.0257 19.1493 40.1308 18.9205 40.2046C18.6917 40.2748 18.4648 40.3098 18.2397 40.3098C17.9481 40.3098 17.6806 40.2526 17.437 40.1382C17.1972 40.0201 16.9887 39.8651 16.8115 39.6732C16.6381 39.4777 16.5034 39.2599 16.4074 39.0201C16.3115 38.7765 16.2635 38.5292 16.2635 38.2783ZM23.1075 39.3356V40.2766H20.3066V36.3465H23.0577V37.2875H21.386V37.841H22.8142V38.7156H21.386V39.3356H23.1075ZM24.6889 38.3447V40.2766H23.6095V36.3465H24.4509L26.0285 38.3447V36.3465H27.1079V40.2766H26.2499L24.6889 38.3447ZM30.8438 37.2875H29.7145V40.2766H28.6351V37.2875H27.5004V36.3465H30.8438V37.2875ZM31.2369 40.2766V36.3465H33.0415C33.2333 36.3465 33.4105 36.3852 33.5729 36.4627C33.7352 36.5402 33.8755 36.6454 33.9935 36.7782C34.1116 36.9074 34.202 37.0531 34.2648 37.2155C34.3312 37.3779 34.3644 37.5421 34.3644 37.7082C34.3644 37.8595 34.3423 38.0052 34.298 38.1455C34.2537 38.2857 34.1891 38.4149 34.1043 38.5329C34.0194 38.6473 33.9179 38.747 33.7998 38.8319L34.6301 40.2766H33.4455L32.7536 39.0699H32.3163V40.2766H31.2369ZM32.3163 38.1289H32.9972C33.0415 38.1289 33.0839 38.1122 33.1245 38.079C33.1651 38.0458 33.1983 37.9978 33.2241 37.9351C33.2536 37.8724 33.2684 37.7967 33.2684 37.7082C33.2684 37.6159 33.2518 37.5403 33.2186 37.4812C33.1891 37.4185 33.1503 37.3705 33.1023 37.3373C33.0581 37.3041 33.0138 37.2875 32.9695 37.2875H32.3163V38.1289ZM36.6558 40.3098C36.3421 40.3098 36.0727 40.2581 35.8476 40.1548C35.6225 40.0515 35.438 39.9094 35.2941 39.7286C35.1538 39.5478 35.0505 39.3411 34.9841 39.1086C34.9177 38.8724 34.8844 38.6252 34.8844 38.3669V36.3465H35.9638V38.3669C35.9638 38.496 35.9768 38.6197 36.0026 38.7378C36.0284 38.8558 36.069 38.961 36.1244 39.0533C36.1797 39.1455 36.2498 39.2193 36.3347 39.2747C36.4233 39.3263 36.5303 39.3522 36.6558 39.3522C36.7849 39.3522 36.8938 39.3263 36.9824 39.2747C37.0709 39.2193 37.141 39.1455 37.1927 39.0533C37.2481 38.9573 37.2887 38.8503 37.3145 38.7322C37.3403 38.6141 37.3532 38.4923 37.3532 38.3669V36.3465H38.4326V38.3669C38.4326 38.64 38.3957 38.8946 38.3219 39.1308C38.2518 39.3669 38.1448 39.5736 38.0009 39.7507C37.857 39.9279 37.6724 40.0663 37.4473 40.1659C37.2259 40.2618 36.9621 40.3098 36.6558 40.3098ZM42.026 40.2766V38.2064L41.3673 39.6622H40.7916L40.1329 38.2064V40.2766H39.0535V36.3465H40.2326L41.0795 38.1953L41.9319 36.3465H43.1054V40.2766H42.026Z" fill="#1B3AB5"/>
<path d="M33.071 8.99989C33.5012 8.99989 33.8499 9.34862 33.8499 9.77879V12.9652C33.8499 13.3954 33.5012 13.7441 33.071 13.7441C32.6408 13.7441 32.2921 13.3954 32.2921 12.9652V11.6591L26.0746 17.8767C25.7152 18.2362 25.1322 18.2362 24.7727 17.8767L23.0199 16.1238L16.4309 22.776C16.1288 23.0823 15.6358 23.0856 15.3295 22.7835C15.0233 22.4814 15.02 21.9883 15.3221 21.6821L22.3616 14.5732L22.3958 14.5401C22.745 14.2204 23.2818 14.2185 23.6333 14.5358L23.6677 14.5688L25.4235 16.3246L31.1907 10.5577H29.8846C29.4545 10.5577 29.1057 10.209 29.1057 9.77879C29.1057 9.34862 29.4545 8.99989 29.8846 8.99989H33.071Z" fill="#E3C14A"/>
<rect x="13.5391" y="26.0018" width="4.53176" height="5.99806" rx="1.03031" fill="#1B3AB5"/>
<rect x="19.3457" y="23.2636" width="4.53176" height="8.7363" rx="1.03031" fill="#1B3AB5"/>
<rect x="25.1523" y="19.6127" width="4.53176" height="12.3873" rx="1.03031" fill="#1B3AB5"/>
<rect x="30.957" y="16.2224" width="4.53176" height="15.7775" rx="1.03031" fill="#E3C14A"/>
</svg>
